<?xml version="1.0" standalone="no"?>
<!DOCTYPE svg PUBLIC "-//W3C//DTD SVG 20010904//EN"
 "http://www.w3.org/TR/2001/REC-SVG-20010904/DTD/svg10.dtd">
<svg version="1.0" xmlns="http://www.w3.org/2000/svg"
 width="300.000000pt" height="300.000000pt" viewBox="0 0 300.000000 300.000000"
 preserveAspectRatio="xMidYMid meet">
<metadata>
Created by potrace 1.10, written by Peter Selinger 2001-2011
</metadata>
<g transform="translate(0.000000,300.000000) scale(0.100000,-0.100000)"
fill="#000000" stroke="none">
<path d="M0 1500 l0 -1500 1500 0 1500 0 0 1500 0 1500 -1500 0 -1500 0 0
-1500z m1864 1104 l116 -66 -2 -700 -3 -700 -170 -98 c-93 -53 -308 -176 -476
-273 -169 -97 -311 -178 -317 -179 -11 -3 -241 123 -242 133 0 3 39 28 88 55
432 248 849 488 860 497 9 7 12 104 12 423 0 228 -2 414 -4 414 -3 0 -110 -60
-238 -134 l-233 -135 -3 -135 c-1 -75 1 -136 4 -136 4 0 55 27 114 60 59 33
110 60 114 60 3 0 5 -62 4 -137 l-3 -138 -230 -132 c-126 -73 -233 -133 -238
-133 -4 0 -6 188 -5 417 l3 418 358 204 357 205 0 138 c0 76 4 138 9 138 4 0
61 -30 125 -66z"/>
</g>
</svg>
