<?xml version="1.0" standalone="no"?>
<!DOCTYPE svg PUBLIC "-//W3C//DTD SVG 20010904//EN"
 "http://www.w3.org/TR/2001/REC-SVG-20010904/DTD/svg10.dtd">
<svg version="1.0" xmlns="http://www.w3.org/2000/svg"
 width="100.000000pt" height="100.000000pt" viewBox="0 0 100.000000 100.000000"
 preserveAspectRatio="xMidYMid meet">
<metadata>
Created by potrace 1.10, written by Peter Selinger 2001-2011
</metadata>
<g transform="translate(0.000000,100.000000) scale(0.100000,-0.100000)"
fill="#ffde59" stroke="none">
<path d="M0 500 l0 -500 500 0 500 0 0 500 0 500 -500 0 -500 0 0 -500z m930
85 c27 -33 -13 -80 -50 -58 -12 8 -21 9 -25 3 -9 -15 -25 -12 -25 5 0 8 -4 15
-10 15 -17 0 -11 -21 15 -52 14 -16 25 -36 25 -43 0 -15 -27 -45 -40 -45 -5 0
-16 7 -24 16 -14 14 -18 14 -31 0 -16 -15 -44 -11 -57 8 -12 18 -9 111 4 124
20 20 56 14 63 -9 4 -12 2 -26 -4 -32 -9 -9 -13 -6 -17 11 -11 41 -24 23 -24
-33 0 -30 5 -55 10 -55 6 0 10 6 10 14 0 10 10 14 30 14 18 -1 30 -6 30 -15 0
-7 5 -13 10 -13 16 0 12 20 -10 47 -38 48 -15 103 31 74 15 -9 19 -8 19 2 0
33 48 49 70 22z m-738 -27 c-2 -14 4 -18 24 -18 20 0 25 -4 20 -16 -3 -9 -6
-18 -6 -20 0 -2 -29 -4 -65 -4 -36 0 -65 4 -65 9 0 4 5 22 11 40 10 29 15 32
48 29 28 -2 35 -7 33 -20z m133 -63 l0 -70 -32 -3 -33 -3 0 76 0 76 33 -3 32
-3 0 -70z m68 53 c12 -48 19 -128 12 -128 -4 0 -14 8 -21 18 -12 16 -13 16
-19 0 -4 -10 -12 -18 -17 -18 -10 0 -6 49 8 123 7 33 30 36 37 5z m92 -53 l0
-70 -32 -3 -33 -3 0 76 0 76 33 -3 32 -3 0 -70z m89 59 c12 -31 6 -112 -9
-128 -16 -15 -44 -11 -57 8 -9 13 -10 98 -2 120 4 9 18 16 34 16 16 0 30 -7
34 -16z m116 -59 c0 -60 -3 -75 -15 -75 -12 0 -15 14 -15 66 0 48 -3 65 -12
62 -8 -3 -14 -28 -16 -66 -4 -80 -22 -81 -22 -2 0 45 -4 62 -15 66 -32 13 -13
24 40 24 l55 0 0 -75z m-470 -19 c0 -8 -4 -26 -10 -40 -8 -21 -16 -26 -46 -26
-36 0 -36 1 -30 32 6 29 5 31 -7 14 -18 -25 -47 -15 -40 13 5 18 13 21 69 21
49 0 64 -3 64 -14z"/>
<path d="M875 570 c-8 -25 1 -40 25 -40 25 0 37 20 13 21 -10 1 -21 1 -25 0
-5 0 -8 4 -8 9 0 6 12 10 26 10 14 0 23 4 19 10 -11 17 -43 11 -50 -10z"/>
<path d="M180 520 c0 -7 3 -10 7 -7 3 4 3 10 0 14 -4 3 -7 0 -7 -7z"/>
<path d="M280 495 c0 -30 5 -55 10 -55 6 0 10 25 10 55 0 30 -4 55 -10 55 -5
0 -10 -25 -10 -55z"/>
<path d="M372 490 c0 -14 2 -19 5 -12 2 6 2 18 0 25 -3 6 -5 1 -5 -13z"/>
<path d="M450 531 c0 -12 5 -21 10 -21 6 0 10 6 10 14 0 8 -4 18 -10 21 -5 3
-10 -3 -10 -14z"/>
<path d="M450 460 c0 -11 5 -20 10 -20 6 0 10 9 10 20 0 11 -4 20 -10 20 -5 0
-10 -9 -10 -20z"/>
<path d="M530 495 c0 -30 5 -55 10 -55 6 0 10 25 10 55 0 30 -4 55 -10 55 -5
0 -10 -25 -10 -55z"/>
</g>
</svg>
