 <svg  version="1.0" xmlns="http://www.w3.org/2000/svg"  width="900.000000pt" height="504.000000pt" viewBox="0 0 900.000000 504.000000"  preserveAspectRatio="xMidYMid meet">  <g transform="translate(0.000000,504.000000) scale(0.100000,-0.100000)" fill="#be194d" stroke="none"> <path d="M3478 4843 l-27 -4 -3 -252 c-2 -139 -1 -258 1 -264 2 -9 22 -13 57 -13 l53 0 3 103 3 102 125 5 125 5 3 42 c3 40 2 42 -30 48 -18 3 -73 4 -121 2 -61 -2 -91 1 -98 9 -6 7 -9 34 -7 61 l3 48 142 3 c143 3 143 3 149 27 3 14 3 36 0 50 -6 25 -8 25 -105 25 -54 0 -131 2 -172 4 -41 2 -86 2 -101 -1z"/> <path d="M4092 4833 c-5 -10 -26 -58 -47 -108 -38 -93 -43 -105 -94 -218 -17 -37 -31 -70 -31 -75 -1 -4 -9 -25 -20 -47 -32 -65 -28 -75 30 -75 49 0 50 1 70 44 11 25 20 50 20 55 0 17 39 22 144 19 76 -2 101 -7 106 -18 5 -8 16 -34 26 -57 l17 -43 54 0 c44 0 53 3 53 18 0 10 -4 22 -8 28 -5 5 -23 45 -41 89 -19 44 -40 95 -47 113 -8 17 -21 48 -29 67 -28 68 -47 110 -61 138 -8 16 -14 34 -14 41 0 42 -109 66 -128 29z m93 -217 c34 -81 30 -96 -29 -96 -73 0 -90 14 -67 58 5 9 19 39 30 65 12 26 25 45 30 43 5 -3 21 -35 36 -70z"/> <path d="M4493 4829 c-5 -13 -7 -135 -5 -271 l3 -248 44 0 c24 0 47 5 51 12 10 15 13 494 4 509 -4 6 -26 13 -48 16 -37 5 -42 3 -49 -18z"/> <path d="M4794 4835 c-10 -8 -26 -15 -35 -15 -19 0 -51 -35 -67 -73 -27 -64 -3 -149 50 -178 37 -21 120 -49 144 -49 25 0 84 -45 84 -64 0 -7 -10 -22 -23 -34 -35 -33 -98 -29 -171 9 l-59 31 -23 -28 c-40 -49 -31 -65 60 -106 53 -25 205 -25 244 -1 47 30 62 51 73 105 20 102 -25 153 -171 196 -83 25 -115 49 -106 79 7 21 45 43 74 43 20 0 89 -23 98 -33 17 -17 55 -6 64 17 5 13 15 26 22 29 23 8 -26 48 -83 68 -64 23 -148 25 -175 4z"/> <path d="M5224 4830 c-53 -25 -70 -46 -85 -102 -10 -38 -10 -54 1 -87 14 -42 65 -91 95 -91 9 0 28 -6 43 -14 15 -7 43 -16 62 -20 35 -7 80 -41 80 -61 0 -6 -10 -21 -23 -33 -34 -32 -95 -29 -162 8 l-53 29 -25 -20 c-38 -29 -43 -56 -15 -79 13 -11 30 -20 38 -20 8 0 24 -7 34 -15 30 -23 198 -21 234 2 48 31 61 47 73 93 17 68 -1 122 -53 160 -23 17 -50 30 -62 30 -12 1 -32 7 -46 15 -14 8 -37 14 -51 15 -28 0 -69 37 -69 62 0 9 12 23 26 33 31 20 84 16 135 -9 18 -9 40 -16 49 -16 14 0 60 49 60 65 0 12 -44 44 -60 45 -8 0 -28 7 -44 15 -39 20 -131 18 -182 -5z"/> <path d="M1827 4063 c-4 -3 -7 -75 -7 -160 0 -133 2 -154 16 -160 16 -6 36 12 48 41 2 6 15 -1 30 -16 20 -21 36 -28 64 -28 21 0 43 5 50 12 9 9 17 9 36 -1 13 -8 28 -11 34 -7 5 3 10 40 10 83 1 119 -25 153 -115 153 -56 0 -76 -10 -67 -33 4 -12 18 -17 49 -17 56 0 75 -8 75 -31 0 -16 -8 -19 -51 -19 -46 0 -55 -4 -85 -35 -18 -19 -35 -35 -37 -35 -2 0 -5 55 -6 122 -1 67 -4 125 -7 130 -6 10 -28 11 -37 1z m223 -223 c9 -17 7 -25 -12 -45 -28 -30 -49 -31 -73 -5 -15 17 -16 22 -4 37 31 39 72 45 89 13z"/> <path d="M2157 4063 c-12 -11 -8 -311 4 -318 5 -4 24 -1 40 5 23 10 33 10 42 1 16 -16 69 -13 92 7 72 61 73 158 1 206 -29 19 -92 22 -98 4 -2 -6 -12 -9 -21 -5 -12 5 -16 17 -15 48 2 45 -24 74 -45 52z m155 -150 c24 -22 23 -74 -2 -101 -45 -48 -117 -10 -106 57 3 20 13 42 23 48 24 18 63 16 85 -4z"/> <path d="M2425 4058 c-3 -8 -4 -81 -3 -163 l3 -150 25 0 25 0 0 160 c0 158 0 160 -23 163 -12 2 -24 -3 -27 -10z"/> <path d="M3955 4058 c-3 -8 -4 -81 -3 -163 l3 -150 25 0 c24 0 25 3 27 65 1 36 2 73 2 82 1 23 37 41 67 34 22 -6 23 -11 26 -94 3 -87 3 -87 31 -90 l27 -3 0 101 c0 93 -2 103 -22 121 -25 20 -83 26 -93 9 -3 -5 -12 -10 -20 -10 -10 0 -15 16 -17 53 -3 45 -6 52 -26 55 -12 2 -24 -3 -27 -10z"/> <path d="M4778 4059 c-24 -14 -23 -35 3 -42 31 -8 50 3 47 27 -3 24 -25 30 -50 15z"/> <path d="M5027 4063 c-4 -3 -7 -75 -7 -159 0 -130 2 -153 16 -158 27 -10 34 3 34 70 0 76 10 99 46 108 48 12 64 -15 64 -106 0 -77 1 -79 23 -76 21 3 22 8 25 90 4 115 -11 148 -68 148 -21 0 -42 -4 -45 -10 -3 -5 -14 -10 -24 -10 -15 0 -19 9 -19 45 -1 25 -4 50 -7 55 -7 11 -29 13 -38 3z"/> <path d="M6327 4064 c-4 -4 -7 -76 -7 -161 0 -168 5 -180 56 -153 19 11 27 11 36 2 7 -7 31 -12 54 -12 41 0 60 14 94 69 7 12 16 7 44 -24 31 -34 42 -39 92 -43 l57 -5 43 47 c43 47 64 52 64 16 0 -27 60 -60 110 -60 58 0 86 23 131 108 11 19 9 26 -9 45 -12 13 -22 28 -22 33 0 6 -10 20 -23 32 -46 44 -170 20 -183 -35 -9 -33 -24 -29 -68 17 -36 37 -43 40 -94 40 -51 0 -58 -3 -92 -39 l-36 -38 -36 38 c-28 32 -41 39 -71 39 -21 0 -46 -5 -57 -12 -25 -16 -29 -11 -32 48 -3 41 -6 49 -23 52 -12 2 -24 0 -28 -4z m426 -152 c27 -24 23 -88 -8 -108 -38 -25 -89 -12 -108 28 -35 73 53 135 116 80z m-268 4 c14 -10 18 -25 17 -57 -2 -49 -20 -69 -62 -69 -42 0 -60 20 -62 68 -1 31 4 46 18 57 24 18 65 19 89 1z m535 -6 c32 -32 26 -74 -14 -105 -30 -23 -38 -25 -58 -15 -25 14 -57 49 -58 65 0 6 9 25 20 43 16 26 26 32 55 32 22 0 43 -8 55 -20z"/> <path d="M7127 4063 c-9 -16 -6 -313 4 -318 5 -4 18 -3 29 0 15 5 20 15 20 39 0 19 6 39 14 45 11 9 21 2 50 -39 27 -37 42 -50 61 -50 31 0 32 13 3 53 -24 33 -42 62 -54 86 -5 10 6 27 34 52 33 29 39 38 26 43 -31 12 -50 5 -77 -29 -45 -56 -57 -47 -57 39 0 58 -3 75 -16 80 -21 8 -32 8 -37 -1z"/> <path d="M2913 4047 c-37 -14 -65 -49 -65 -81 0 -34 31 -76 56 -76 12 0 27 -5 33 -11 6 -6 26 -14 45 -18 42 -9 52 -46 16 -60 -26 -10 -87 -3 -105 11 -14 12 -56 -8 -51 -24 8 -23 73 -48 124 -48 48 0 55 3 88 40 35 38 56 45 56 16 0 -22 57 -56 92 -55 55 2 83 13 83 34 0 21 -7 22 -60 10 -23 -5 -37 -2 -55 13 -39 32 -15 46 75 44 74 -1 75 -1 75 24 0 30 -14 60 -43 92 -16 17 -31 22 -72 22 -55 0 -85 -20 -99 -66 -4 -12 -15 -29 -24 -38 -17 -15 -20 -14 -40 14 -17 22 -31 30 -55 30 -19 1 -44 11 -62 25 -28 24 -29 24 -10 44 22 25 62 27 93 5 25 -18 42 -11 42 16 0 13 -12 25 -36 35 -42 17 -57 18 -101 2z m318 -123 c41 -21 34 -46 -15 -56 -58 -12 -84 16 -49 54 20 22 26 22 64 2z"/> <path d="M4481 4026 c-12 -18 -21 -42 -21 -52 0 -27 -33 -111 -45 -114 -9 -2 -28 41 -55 125 -16 50 -27 65 -52 65 -26 0 -34 -27 -14 -49 9 -10 16 -28 16 -40 0 -13 6 -35 14 -49 16 -33 36 -87 45 -126 15 -65 68 -59 86 10 6 21 16 49 23 61 6 12 12 33 12 47 0 57 41 30 59 -41 7 -23 16 -45 21 -48 6 -3 10 -20 10 -36 0 -33 23 -48 49 -32 8 5 23 30 31 54 9 24 22 57 28 72 7 16 12 34 12 41 0 7 6 26 14 42 21 43 24 88 6 91 -25 5 -42 -13 -51 -53 -20 -96 -33 -134 -45 -134 -19 0 -44 40 -44 70 0 15 -7 35 -15 46 -8 10 -15 29 -15 41 0 19 -25 43 -44 43 -2 0 -14 -15 -25 -34z"/> <path d="M5473 4052 c-123 -3 -115 9 -111 -177 l3 -130 25 0 c23 0 25 4 28 52 2 28 9 56 15 62 7 5 42 11 77 13 57 3 65 5 65 23 0 18 -8 21 -75 25 -74 5 -75 5 -78 34 -2 16 1 33 7 39 8 8 71 14 164 17 12 0 4 43 -8 44 -5 1 -56 0 -112 -2z"/> <path d="M1131 4024 c-53 -44 -34 -117 34 -137 63 -18 100 -37 106 -56 10 -24 7 -27 -49 -36 -32 -5 -49 -3 -68 10 -28 18 -54 14 -54 -9 0 -24 73 -56 126 -56 42 0 51 4 85 41 35 38 59 44 59 15 0 -7 13 -22 30 -34 38 -29 102 -29 138 -2 l25 20 23 -21 c19 -18 30 -20 71 -15 59 7 62 7 93 4 24 -3 25 -1 28 71 5 116 -24 161 -103 161 -59 0 -85 -10 -85 -31 0 -16 8 -19 49 -19 62 0 81 -7 81 -31 0 -16 -8 -19 -53 -19 -55 0 -97 -24 -97 -54 0 -17 -13 -22 -71 -31 -37 -5 -49 -3 -72 15 -35 28 -36 68 -2 100 21 19 31 22 70 17 37 -6 47 -4 52 10 10 25 -25 43 -83 43 -46 0 -55 -4 -78 -31 -15 -17 -34 -45 -42 -61 l-15 -29 -26 25 c-14 15 -38 29 -52 32 -44 10 -91 38 -91 54 0 40 65 54 109 24 26 -18 45 -8 39 22 -4 21 -35 32 -100 33 -36 1 -53 -5 -77 -25z m584 -184 c17 -19 17 -20 -6 -45 -29 -30 -49 -31 -80 -6 l-24 19 24 26 c29 31 61 33 86 6z"/> <path d="M7554 4033 c-3 -10 -13 -34 -22 -53 -8 -19 -22 -51 -30 -70 -8 -19 -21 -47 -29 -62 -7 -14 -13 -32 -13 -39 0 -7 -7 -20 -16 -30 -19 -21 -11 -39 16 -39 11 0 27 16 41 40 23 40 23 40 83 40 68 0 80 -5 90 -38 9 -27 41 -46 60 -35 12 7 11 16 -8 58 -13 28 -31 70 -40 95 -10 25 -24 59 -31 75 -8 17 -16 40 -20 53 -5 17 -14 22 -41 22 -24 0 -36 -5 -40 -17z m69 -108 c10 -24 16 -49 12 -55 -3 -5 -24 -10 -46 -10 -35 0 -39 3 -39 24 0 28 30 86 45 86 6 0 18 -20 28 -45z"/> <path d="M7793 4038 c-7 -8 -10 -66 -9 -153 l2 -140 25 0 24 0 0 150 c0 129 -2 150 -16 153 -9 1 -21 -3 -26 -10z"/> <path d="M4887 4034 c-4 -4 -7 -15 -7 -25 0 -24 -18 -34 -65 -34 l-40 0 -3 -112 c-2 -106 -2 -112 18 -118 12 -4 24 -4 27 -1 3 3 5 45 5 93 0 48 2 91 4 95 3 4 16 2 29 -4 23 -10 25 -16 25 -84 0 -96 22 -118 98 -98 32 9 29 42 -5 46 -27 3 -28 5 -28 68 0 59 2 65 22 68 31 5 51 31 32 43 -8 5 -24 9 -36 9 -16 0 -22 7 -25 28 -3 26 -34 43 -51 26z"/> <path d="M2539 3951 c-26 -26 -29 -36 -29 -91 0 -56 3 -64 32 -91 42 -37 116 -41 149 -8 21 21 21 22 4 32 -13 7 -24 6 -36 -2 -26 -16 -54 -14 -78 7 -35 29 -13 45 66 46 l68 1 3 36 c2 27 -3 44 -23 68 -23 27 -33 31 -77 31 -41 0 -54 -5 -79 -29z m105 -24 c10 -7 16 -22 14 -33 -2 -15 -12 -19 -42 -19 -49 0 -72 28 -42 51 25 18 47 18 70 1z"/> <path d="M3364 3965 c-12 -30 1 -39 50 -36 49 3 76 -10 76 -38 0 -13 -9 -15 -47 -13 -56 3 -113 -26 -113 -57 0 -30 21 -70 39 -75 21 -7 146 -1 159 7 5 4 9 42 7 92 -2 74 -5 89 -25 110 -20 21 -33 25 -82 25 -42 0 -60 -4 -64 -15z m111 -125 c18 -20 18 -21 -7 -47 -48 -47 -112 -5 -67 44 28 28 50 29 74 3z"/> <path d="M3585 3972 c-7 -4 -9 -47 -5 -117 5 -102 7 -110 25 -110 17 0 21 9 26 63 6 63 35 112 66 112 16 0 18 46 2 56 -7 4 -16 -1 -21 -10 -11 -20 -35 -21 -54 -1 -17 17 -24 18 -39 7z"/> <path d="M3753 3945 c-26 -27 -33 -43 -33 -73 0 -46 23 -96 53 -117 31 -22 110 -20 130 3 31 34 22 45 -31 37 -40 -5 -52 -3 -75 15 -33 26 -36 67 -6 99 19 20 28 22 75 16 43 -5 54 -4 54 8 0 28 -35 47 -86 47 -43 0 -53 -5 -81 -35z"/> <path d="M5633 3964 c-9 -24 7 -33 67 -36 44 -2 56 -7 58 -22 5 -26 -12 -40 -34 -28 -27 13 -79 -4 -103 -34 -27 -34 -26 -45 2 -77 22 -26 26 -27 107 -24 l85 4 1 29 c2 70 2 70 50 16 45 -50 49 -52 99 -52 39 0 56 5 69 19 27 30 12 42 -44 35 -40 -5 -51 -3 -69 15 -27 27 -28 82 -2 105 13 12 33 16 71 14 57 -3 72 9 45 36 -11 11 -34 16 -69 16 -47 0 -55 -3 -88 -39 -20 -21 -40 -51 -44 -67 -6 -25 -8 -26 -15 -9 -4 11 -8 34 -8 52 -1 46 -31 63 -109 63 -48 0 -64 -4 -69 -16z m125 -124 c10 -17 9 -25 -4 -45 -19 -29 -49 -32 -76 -8 -24 21 -23 31 5 54 29 24 59 24 75 -1z"/> <path d="M6108 3958 c-28 -26 -43 -89 -32 -144 13 -69 134 -102 183 -50 22 23 22 24 3 30 -11 4 -31 1 -45 -5 -45 -20 -115 23 -76 46 5 4 40 8 77 9 l67 2 3 35 c2 27 -4 41 -28 67 -27 27 -38 32 -79 32 -36 0 -54 -6 -73 -22z m103 -28 c24 -13 25 -47 2 -54 -10 -2 -28 -7 -40 -11 -32 -9 -51 29 -27 56 19 21 36 24 65 9z"/> <path d="M2940 3260 c0 -31 5 -61 11 -67 6 -6 13 -44 15 -85 l4 -74 -60 -92 c-33 -51 -61 -92 -62 -92 -2 -1 -43 -7 -93 -15 -49 -8 -126 -20 -170 -26 -44 -5 -93 -15 -110 -21 -16 -6 -70 -14 -120 -19 -49 -4 -106 -12 -125 -18 -19 -6 -59 -11 -88 -11 -29 0 -62 -5 -73 -11 -11 -6 -60 -13 -109 -16 -49 -3 -87 -9 -85 -13 7 -11 229 -1 329 16 49 8 154 14 232 14 83 0 155 5 171 11 15 6 88 13 162 15 74 1 151 6 171 9 21 3 83 1 140 -5 78 -9 112 -17 141 -36 21 -13 43 -24 48 -24 5 0 48 -20 95 -45 48 -25 93 -45 100 -45 7 0 23 -9 36 -20 13 -11 27 -20 32 -20 4 0 26 -11 47 -25 22 -13 50 -27 63 -30 13 -3 46 -24 73 -45 28 -22 52 -35 53 -30 2 6 8 10 12 10 5 0 6 -30 3 -68 -4 -55 -2 -70 11 -81 22 -18 22 -106 1 -115 -8 -3 -15 -15 -15 -26 0 -11 7 -20 15 -20 8 0 15 -3 15 -7 0 -5 7 -16 14 -26 12 -15 18 -16 35 -8 16 9 22 8 30 -8 6 -10 7 -21 4 -25 -11 -11 -52 -6 -60 7 -4 8 -20 22 -36 32 -30 20 -106 15 -179 -11 -22 -8 -57 -14 -78 -14 -21 0 -54 -7 -73 -15 -20 -8 -55 -15 -77 -15 -23 0 -54 -7 -70 -15 -17 -9 -40 -12 -59 -9 -19 4 -41 0 -63 -11 -49 -26 -385 -33 -512 -11 -50 8 -136 20 -191 25 -55 5 -122 14 -150 20 -27 5 -90 10 -138 10 -49 1 -97 6 -108 11 -27 15 -141 24 -175 15 l-29 -8 30 -7 c17 -4 58 -8 93 -9 35 0 72 -6 83 -11 10 -6 58 -15 106 -20 105 -11 227 -27 304 -40 30 -6 80 -10 110 -10 31 0 80 -7 110 -16 40 -12 74 -15 129 -10 55 4 70 3 57 -5 -23 -14 -12 -29 21 -29 15 0 40 -7 56 -15 15 -8 45 -15 65 -15 41 0 100 -28 149 -71 18 -16 39 -29 46 -29 8 0 19 -7 26 -15 6 -8 45 -30 85 -49 l73 -35 7 -63 c4 -35 11 -71 16 -80 15 -28 -6 -61 -63 -105 -29 -22 -76 -63 -105 -89 -111 -105 -224 -194 -244 -194 -4 0 -30 -15 -58 -34 -28 -19 -67 -40 -88 -46 -21 -7 -58 -21 -83 -32 -25 -10 -56 -24 -70 -30 -14 -5 -38 -16 -55 -23 -16 -8 -40 -16 -52 -20 -13 -3 -23 -11 -23 -16 0 -5 -12 -9 -26 -9 -14 0 -38 -6 -52 -14 -15 -8 -35 -17 -44 -20 -10 -3 -18 -10 -18 -16 0 -14 27 -13 58 3 54 28 98 45 122 50 21 4 111 37 285 104 22 8 58 24 81 34 23 10 49 19 58 19 9 0 24 4 34 9 47 24 95 41 113 41 12 0 35 7 52 15 41 18 125 33 252 45 55 4 113 13 130 20 16 6 92 12 170 12 157 2 176 -4 282 -83 29 -22 55 -39 58 -39 13 0 75 -56 75 -68 0 -14 22 -56 63 -119 15 -24 27 -51 27 -61 0 -10 7 -27 15 -38 8 -10 15 -29 15 -42 0 -32 18 -62 35 -62 18 0 19 29 3 81 -10 35 -9 42 8 62 51 58 63 85 70 158 5 54 17 96 45 157 22 46 39 87 39 92 0 5 6 13 13 17 7 4 24 26 37 48 13 22 30 46 37 53 7 7 13 18 13 23 0 5 6 9 14 9 7 0 20 7 27 16 25 30 213 2 249 -36 3 -3 19 -15 36 -25 44 -28 104 -82 104 -95 0 -5 4 -10 10 -10 17 0 199 -175 255 -245 21 -28 45 -54 52 -58 7 -4 13 -14 13 -22 0 -7 4 -15 8 -17 14 -5 152 -187 162 -213 5 -14 13 -25 18 -25 5 0 18 -18 31 -40 12 -22 26 -40 31 -40 5 0 12 -9 15 -21 4 -11 9 -18 12 -15 8 8 -27 79 -43 89 -8 4 -14 13 -14 20 0 7 -14 30 -30 51 -17 22 -30 43 -30 47 0 4 -20 37 -45 73 -25 37 -45 69 -45 72 0 3 -15 29 -34 57 -44 68 -54 119 -60 320 -4 141 -3 167 9 167 8 0 21 12 30 28 23 42 52 72 69 72 9 0 45 18 81 40 36 22 71 40 78 40 7 0 22 6 33 14 23 17 173 47 249 51 28 2 77 -1 110 -5 33 -5 98 -14 145 -20 47 -6 105 -15 130 -21 25 -5 88 -14 140 -19 178 -18 278 -39 367 -77 17 -7 36 -13 43 -13 25 0 146 -43 210 -76 72 -36 96 -48 110 -56 8 -4 22 -11 30 -14 36 -13 161 -78 166 -85 3 -5 12 -9 21 -9 9 0 25 -8 35 -17 14 -13 21 -14 31 -4 9 9 7 13 -11 17 -12 4 -22 10 -22 15 0 6 -8 13 -17 16 -10 4 -49 30 -88 59 -38 28 -81 57 -94 64 -20 10 -22 17 -17 50 3 21 15 59 26 84 15 36 29 50 67 70 26 13 73 37 104 53 62 33 125 61 179 79 l35 12 -30 1 c-17 1 -35 -3 -40 -8 -6 -5 -32 -14 -60 -20 -27 -6 -79 -18 -115 -26 -36 -9 -88 -20 -117 -25 -28 -4 -58 -12 -65 -16 -38 -24 -551 -52 -637 -35 -31 6 -110 16 -176 22 -293 25 -333 29 -390 40 -54 11 -96 32 -133 66 -7 7 -20 13 -28 13 -23 0 -111 61 -123 84 -6 12 -33 53 -61 91 -48 68 -49 72 -49 140 0 46 5 77 14 89 8 11 15 27 15 35 0 30 63 143 89 159 14 9 64 40 109 70 114 74 168 100 238 118 134 34 181 45 222 54 24 5 48 13 55 17 6 4 29 10 52 14 22 4 55 12 73 18 17 6 47 16 65 22 17 6 52 15 77 20 25 5 56 13 70 18 14 5 42 12 63 16 20 3 37 11 37 17 0 14 -77 5 -200 -22 -157 -35 -231 -50 -305 -61 -38 -5 -74 -14 -79 -19 -6 -6 -29 -10 -51 -10 -23 0 -64 -7 -91 -15 -36 -11 -99 -15 -234 -15 -207 0 -198 -2 -286 81 -64 60 -78 86 -65 123 6 15 11 54 11 86 0 50 18 107 40 130 13 13 50 91 50 104 0 9 4 16 9 16 14 0 23 32 12 43 -7 7 -14 2 -21 -14 -10 -24 -96 -149 -108 -159 -4 -3 -28 -32 -53 -65 -78 -101 -151 -172 -204 -197 -27 -14 -77 -39 -110 -58 -33 -18 -89 -48 -125 -68 -36 -19 -69 -38 -75 -42 -5 -4 -39 -17 -74 -29 -35 -12 -76 -28 -92 -36 -40 -21 -78 -18 -124 10 -22 13 -62 35 -90 48 -73 35 -144 121 -191 232 -9 22 -36 81 -59 130 -24 50 -46 101 -50 114 -5 17 -10 20 -18 12 -8 -8 -6 -27 7 -69 10 -31 28 -86 39 -122 11 -36 24 -74 28 -85 4 -11 10 -36 14 -55 4 -19 11 -53 17 -75 5 -22 13 -61 17 -87 6 -42 5 -48 -10 -48 -10 0 -20 -9 -24 -19 -3 -11 -12 -22 -20 -25 -8 -3 -15 -12 -15 -19 0 -9 -26 -24 -60 -37 -33 -12 -63 -26 -65 -30 -3 -4 -82 -9 -175 -9 -144 -1 -171 1 -176 14 -4 8 -18 15 -33 15 -15 0 -36 7 -47 15 -10 8 -26 15 -35 15 -18 0 -90 43 -180 108 -32 23 -63 42 -68 42 -5 0 -14 7 -21 15 -14 17 -47 20 -52 5 -1 -5 -13 -7 -25 -4 -26 7 -21 24 8 24 10 0 19 5 19 10 0 6 -6 10 -13 10 -39 0 -155 93 -157 125 0 6 -23 44 -52 85 -52 76 -90 137 -107 177 -5 11 -15 24 -20 28 -6 3 -11 14 -11 24 0 10 -7 24 -15 31 -8 7 -15 19 -15 26 0 7 -9 28 -20 46 l-20 33 0 -55z m88 -182 c7 -7 12 -22 12 -35 0 -13 5 -23 10 -23 6 0 16 -12 23 -27 6 -16 14 -30 17 -33 3 -3 15 -19 28 -37 25 -37 29 -63 7 -63 -8 0 -15 9 -15 20 0 22 -9 36 -47 75 -13 12 -23 27 -23 32 0 5 -9 18 -20 28 -11 10 -20 31 -20 47 0 30 9 35 28 16z m20 -165 c26 -40 27 -43 7 -43 -8 0 -19 9 -25 20 -6 11 -17 20 -25 20 -10 0 -15 10 -15 28 0 36 12 49 25 27 5 -10 20 -33 33 -52z m-78 -3 c7 -17 10 -33 6 -37 -3 -3 -6 1 -6 10 0 10 -7 17 -15 17 -8 0 -15 9 -15 20 0 30 16 24 30 -10z m209 -69 c17 -11 7 -41 -12 -41 -19 0 -40 26 -32 40 8 12 25 13 44 1z m-152 -32 c-14 -23 -67 -26 -67 -5 0 8 -6 16 -12 19 -7 3 10 5 39 5 49 0 51 -1 40 -19z m-159 -7 c2 -8 -11 -12 -40 -12 l-43 1 30 14 c34 15 47 14 53 -3z m-315 -39 c-13 -2 -35 -2 -50 0 -16 2 -5 4 22 4 28 0 40 -2 28 -4z m2661 -25 c18 -57 16 -64 -37 -120 -29 -31 -75 -68 -102 -83 l-50 -27 -37 23 c-20 13 -40 31 -43 39 -12 28 32 66 141 122 120 62 123 64 128 46z m288 -28 c26 -17 49 -38 52 -47 9 -22 -85 -109 -126 -117 -57 -11 -138 -7 -144 8 -3 7 8 44 25 80 26 58 36 69 73 85 58 26 68 26 120 -9z m-945 -122 c6 -5 33 -13 59 -16 32 -5 50 -13 58 -27 6 -11 17 -24 25 -29 20 -12 6 -209 -17 -245 -27 -41 -55 -60 -89 -61 -17 0 -38 -7 -47 -15 -8 -8 -24 -15 -36 -15 -31 0 -78 27 -85 49 -3 11 -19 31 -36 45 -16 14 -29 29 -29 35 0 6 -4 11 -10 11 -16 0 -12 -22 7 -35 10 -7 14 -19 10 -29 -9 -22 -27 -11 -27 15 0 10 -4 19 -9 19 -5 0 -8 23 -8 51 2 38 -2 54 -15 63 -10 7 -18 19 -18 26 0 10 4 9 17 -1 15 -12 16 -12 11 8 -6 23 10 81 29 104 6 8 14 24 17 36 6 18 16 23 54 25 61 4 124 -2 139 -14z m987 -124 c34 -15 56 -32 57 -42 3 -47 -3 -92 -18 -138 -15 -47 -21 -54 -70 -78 -61 -30 -106 -32 -177 -11 -27 8 -61 15 -75 15 -16 0 -37 12 -54 29 -23 24 -27 38 -27 83 0 51 2 57 38 84 20 17 42 33 49 37 15 9 93 27 163 36 30 5 56 9 56 10 1 0 27 -11 58 -25z m-1269 -4 c-3 -5 -20 -10 -36 -10 -18 0 -28 4 -24 10 3 6 20 10 36 10 18 0 28 -4 24 -10z m670 -4 c28 -8 40 -17 40 -30 0 -20 -4 -23 -77 -56 -43 -20 -49 -20 -77 -6 -44 23 -50 55 -15 83 32 25 67 28 129 9z m-745 -16 c11 -7 5 -10 -22 -10 -51 0 -48 -15 7 -42 45 -22 67 -20 47 5 -18 21 -2 28 24 10 27 -17 32 -43 9 -43 -8 0 -15 -2 -15 -5 0 -9 47 -79 68 -101 10 -11 25 -31 32 -44 12 -22 14 -22 25 -7 11 15 13 16 19 2 3 -8 1 -15 -4 -15 -6 0 -10 -7 -10 -15 0 -8 4 -15 9 -15 5 0 16 -14 25 -31 14 -27 14 -34 1 -59 -8 -16 -12 -36 -9 -44 13 -33 -120 -52 -146 -21 -7 8 -20 15 -29 15 -9 0 -29 7 -45 15 -15 8 -38 15 -51 15 -12 0 -28 7 -35 15 -7 8 -23 15 -36 15 -15 0 -30 10 -41 27 -25 38 -112 123 -127 123 -9 0 -12 23 -11 81 3 109 7 113 137 115 57 2 114 7 128 13 32 13 32 13 50 1z m-340 -65 c0 -2 -5 -16 -12 -30 -12 -27 -34 -36 -24 -9 3 9 6 22 6 30 0 8 7 14 15 14 8 0 15 -2 15 -5z m1208 -32 c6 -10 13 -36 16 -59 6 -35 3 -49 -26 -96 -18 -30 -48 -68 -66 -83 -37 -31 -99 -65 -119 -65 -24 0 -53 62 -53 112 0 41 5 52 35 83 20 19 39 35 43 35 5 0 21 14 37 30 16 17 34 30 41 30 6 0 17 7 24 15 17 20 57 19 68 -2z m-1198 -143 c0 -19 -20 -27 -33 -13 -8 7 11 33 24 33 5 0 9 -9 9 -20z m57 -44 c25 -26 21 -36 -14 -36 -15 0 -27 8 -32 23 -16 42 11 51 46 13z m565 -10 c21 -16 13 -26 -19 -26 -22 0 -31 19 -16 33 9 10 15 8 35 -7z m231 -3 c4 -2 7 -22 7 -43 0 -21 5 -42 10 -45 17 -10 10 -49 -13 -78 -18 -21 -37 -30 -88 -39 -35 -6 -82 -12 -104 -12 -39 -1 -40 0 -43 34 -5 45 -20 64 -38 49 -11 -9 -14 -9 -14 0 0 6 7 14 15 17 8 4 15 13 15 21 0 12 3 13 14 4 11 -9 16 -3 26 33 11 41 15 45 39 40 18 -4 35 1 51 15 20 17 33 19 70 15 25 -4 48 -8 53 -11z m581 -17 c59 -12 86 -33 86 -68 0 -10 -8 -22 -17 -25 -10 -4 -39 -20 -65 -36 -37 -22 -55 -27 -77 -22 -39 8 -47 20 -54 77 -6 43 -4 49 21 67 31 24 29 23 106 7z m-214 -107 c0 -70 -24 -109 -66 -109 -36 0 -64 22 -63 48 1 29 12 49 52 91 32 35 41 40 57 31 16 -9 20 -21 20 -61z m-1345 51 c-28 -12 -73 -12 -80 0 -4 6 14 10 47 9 39 0 48 -3 33 -9z m307 -48 c12 -10 28 -12 51 -8 28 5 35 3 39 -12 3 -11 18 -21 35 -25 33 -6 50 -41 32 -63 -6 -7 -8 -22 -4 -34 4 -13 2 -21 -7 -24 -7 -2 -62 -19 -123 -39 -188 -61 -238 -70 -385 -70 -103 0 -143 3 -170 15 -83 38 -133 58 -147 58 -23 0 -90 38 -97 55 -8 21 7 48 41 74 l28 20 -47 1 c-37 0 -50 -5 -62 -22 -13 -18 -18 -20 -28 -10 -37 37 67 73 129 45 38 -17 154 -9 190 13 13 8 48 14 81 14 33 0 72 5 88 10 87 30 322 32 356 2z m1490 -34 c43 0 51 -4 97 -54 28 -30 51 -62 51 -72 0 -9 -8 -39 -18 -67 -15 -42 -24 -52 -52 -61 -19 -6 -36 -16 -38 -23 -2 -6 -9 -11 -17 -11 -7 0 -18 -7 -25 -15 -10 -12 -9 -16 9 -23 13 -4 -18 -7 -76 -7 -100 0 -143 12 -143 40 0 8 -13 34 -30 58 -43 64 -40 91 18 146 27 25 59 53 71 61 13 8 30 21 39 28 10 7 28 10 42 6 14 -3 46 -5 72 -6z m-1092 -33 c0 -8 -9 -15 -19 -15 -11 0 -23 -4 -26 -10 -11 -17 -35 -11 -35 9 0 20 16 28 58 30 13 1 22 -5 22 -14z m-1370 1 c0 -22 -17 -36 -41 -36 -27 0 -39 17 -22 33 7 8 63 10 63 3z m58 -20 c3 -12 -1 -17 -10 -14 -7 3 -15 13 -16 22 -3 12 1 17 10 14 7 -3 15 -13 16 -22z m1188 -1 c13 -14 28 -25 34 -25 5 0 10 -9 10 -20 0 -13 7 -20 20 -20 23 0 27 -15 6 -23 -8 -3 -20 0 -26 8 -6 7 -20 11 -30 8 -21 -5 -28 11 -10 22 15 9 12 25 -5 25 -8 0 -15 7 -15 15 0 8 -9 15 -19 15 -11 0 -23 5 -26 10 -13 21 39 9 61 -15z m-1126 -38 c0 -7 12 -18 28 -24 l27 -11 -27 -1 c-16 -1 -28 3 -28 8 0 5 -11 12 -25 15 -14 4 -25 11 -25 16 0 6 11 10 25 10 14 0 25 -6 25 -13z m1095 3 c3 -5 -3 -10 -14 -10 -12 0 -21 5 -21 10 0 6 6 10 14 10 8 0 18 -4 21 -10z m300 -25 c33 -8 74 -14 91 -15 16 0 35 -5 41 -11 18 -18 3 -129 -22 -169 -34 -54 -45 -60 -90 -50 -22 5 -56 10 -75 10 -19 1 -49 9 -67 18 -60 33 -99 106 -69 131 9 8 16 19 17 25 0 14 79 74 99 75 8 0 42 -6 75 -14z m-272 -79 c19 -22 26 -39 23 -56 -9 -49 -70 -126 -139 -176 -38 -27 -76 -57 -85 -66 -9 -10 -21 -18 -26 -18 -5 0 -36 -20 -67 -45 -32 -25 -75 -52 -96 -61 -21 -8 -47 -19 -58 -24 -21 -9 -88 -25 -169 -40 -26 -5 -62 -13 -80 -19 -63 -19 -150 -22 -171 -7 -11 9 -27 16 -36 16 -9 0 -21 6 -27 13 -13 16 150 206 199 231 40 21 73 40 114 66 59 38 200 102 355 163 194 75 215 77 263 23z m677 18 c32 -6 82 -93 68 -118 -6 -11 -5 -18 6 -22 9 -3 16 -13 16 -21 0 -11 -7 -13 -26 -9 -27 7 -27 7 -22 -41 3 -26 3 -42 1 -35 -8 20 -30 14 -37 -11 -5 -20 -75 -77 -96 -77 -4 0 -13 6 -19 14 -6 7 -33 16 -60 20 -49 6 -104 47 -82 60 6 4 8 20 6 36 -3 17 -7 44 -10 61 -4 26 -3 29 9 20 11 -9 19 -3 39 31 13 24 27 53 31 65 12 38 69 47 176 27z m-625 -15 c0 -7 -8 -15 -17 -17 -18 -3 -25 18 -11 32 10 10 28 1 28 -15z m1505 1 c0 -5 -7 -10 -15 -10 -8 0 -15 5 -15 10 0 6 7 10 15 10 8 0 15 -4 15 -10z m-108 -32 c-5 -5 -20 -8 -33 -6 l-24 5 25 10 c28 12 47 6 32 -9z m-2280 -60 c-9 -9 -15 -9 -24 0 -9 9 -7 12 12 12 19 0 21 -3 12 -12z m1771 -44 c40 -37 94 -155 81 -176 -4 -6 -7 -48 -6 -92 1 -45 -1 -86 -6 -91 -11 -15 -80 -65 -89 -65 -4 1 -24 14 -43 30 -19 17 -38 30 -42 30 -13 0 -48 39 -48 53 0 6 -9 23 -19 36 -10 13 -16 33 -13 43 2 11 -1 30 -8 43 -10 19 -10 33 0 69 7 25 19 51 26 57 8 6 14 15 14 20 0 4 9 24 21 43 18 31 26 36 57 36 28 0 46 -9 75 -36z m130 -86 c2 -7 0 -24 -5 -38 l-10 -25 -10 22 c-11 23 -5 53 11 53 5 0 11 -6 14 -12z m-956 -13 c15 -8 47 -22 70 -32 46 -19 48 -23 58 -94 6 -46 6 -47 -51 -100 -32 -30 -72 -68 -88 -86 -39 -41 -92 -63 -151 -63 -42 0 -51 5 -96 49 -44 44 -49 53 -49 94 0 25 6 52 13 59 21 22 77 96 77 101 0 3 11 18 25 33 45 48 137 68 192 39z m288 6 c7 -12 -12 -24 -25 -16 -11 7 -4 25 10 25 5 0 11 -4 15 -9z m302 -98 c4 -10 11 -21 17 -25 6 -4 7 -10 3 -15 -5 -4 -12 -1 -17 7 -7 11 -11 12 -25 0 -26 -22 -44 4 -20 30 22 25 34 25 42 3z m353 -223 c0 -30 -13 -40 -25 -20 -8 13 4 50 16 50 5 0 9 -13 9 -30z m-50 -38 c0 -8 -37 -42 -45 -42 -14 0 -2 39 13 43 28 8 32 7 32 -1z m30 -67 c0 -16 -35 -21 -44 -6 -8 12 4 21 26 21 10 0 18 -7 18 -15z m25 -65 c-5 -8 -11 -8 -17 -2 -6 6 -7 16 -3 22 5 8 11 8 17 2 6 -6 7 -16 3 -22z"/> <path d="M6991 2891 c-20 -13 5 -24 37 -16 20 5 23 8 11 16 -18 11 -30 11 -48 0z"/> <path d="M6848 2863 c-28 -7 -21 -23 10 -23 39 0 73 11 66 21 -5 9 -45 10 -76 2z"/> <path d="M1738 2103 c12 -2 30 -2 40 0 9 3 -1 5 -23 4 -22 0 -30 -2 -17 -4z"/> <path d="M4460 893 c0 -6 -6 -18 -14 -25 -23 -24 -29 -57 -12 -64 13 -5 16 -22 14 -88 -1 -64 -2 -72 -7 -37 -9 64 -31 66 -31 2 0 -27 4 -52 9 -55 5 -4 12 -25 16 -49 4 -23 11 -46 15 -52 4 -5 12 -35 18 -65 19 -97 34 -155 43 -165 9 -9 3 174 -7 244 -5 29 -7 31 -17 16 -10 -13 -12 17 -9 148 3 107 1 171 -7 183 -6 11 -11 14 -11 7z"/> <path d="M2401 881 c-10 -6 -10 -10 -1 -16 14 -9 60 2 60 15 0 12 -40 13 -59 1z"/> <path d="M2337 854 c-12 -12 3 -22 23 -17 11 3 17 9 14 14 -6 10 -28 12 -37 3z"/> <path d="M2260 820 c-12 -8 -12 -10 2 -15 20 -8 41 2 33 16 -8 11 -16 11 -35 -1z"/> <path d="M4532 210 c0 -19 2 -27 5 -17 2 9 2 25 0 35 -3 9 -5 1 -5 -18z"/> </g> </svg> 