<?xml version="1.0" standalone="no"?>
<!DOCTYPE svg PUBLIC "-//W3C//DTD SVG 20010904//EN"
 "http://www.w3.org/TR/2001/REC-SVG-20010904/DTD/svg10.dtd">
<svg version="1.0" xmlns="http://www.w3.org/2000/svg"
 width="675.000000pt" height="675.000000pt" viewBox="0 0 675.000000 675.000000"
 preserveAspectRatio="xMidYMid meet">
<metadata>
Created by potrace 1.10, written by Peter Selinger 2001-2011
</metadata>
<g transform="translate(0.000000,675.000000) scale(0.100000,-0.100000)"
fill="#f8ae46" stroke="none">
<path d="M1 5298 c0 -972 4 -1446 10 -1433 23 46 41 50 298 55 l245 5 22 100
c22 100 44 185 65 253 11 35 20 59 54 137 9 19 22 49 30 67 100 230 161 345
226 429 16 20 29 43 29 51 0 7 -72 85 -161 173 -174 173 -197 206 -177 255 16
38 661 685 700 701 21 9 35 9 56 0 15 -6 102 -86 192 -176 90 -91 168 -165
173 -165 4 0 47 26 95 57 96 64 229 130 459 230 83 35 102 42 158 59 33 9 71
21 85 26 14 4 75 19 135 31 l110 23 5 245 c5 255 10 281 52 295 10 3 18 12 18
20 0 12 -197 14 -1440 14 l-1440 0 1 -1452z"/>
<path d="M3850 6736 c0 -8 8 -17 18 -20 10 -3 25 -19 35 -35 15 -25 17 -60 17
-265 0 -181 3 -237 13 -240 6 -2 57 -13 112 -25 159 -34 279 -72 368 -117 16
-8 33 -14 37 -14 8 0 108 -46 275 -126 33 -16 99 -55 147 -87 48 -31 90 -57
95 -57 4 0 84 77 178 170 234 233 190 238 488 -57 490 -487 478 -474 452 -535
-7 -18 -86 -105 -174 -193 -89 -88 -161 -165 -161 -172 0 -7 20 -40 45 -74 25
-34 45 -67 45 -74 0 -7 4 -15 9 -17 10 -3 171 -331 171 -347 0 -5 8 -24 17
-43 9 -18 21 -42 26 -53 6 -11 14 -33 18 -50 5 -16 16 -55 25 -85 9 -30 29
-109 44 -175 l27 -120 244 -5 c255 -5 281 -10 295 -52 3 -10 12 -18 20 -18 12
0 14 198 14 1450 l0 1450 -1450 0 c-1252 0 -1450 -2 -1450 -14z"/>
<path d="M3017 6532 c-13 -14 -16 -54 -19 -245 -3 -227 -3 -229 -27 -248 -13
-11 -35 -22 -50 -24 -14 -3 -46 -10 -71 -17 -25 -6 -65 -14 -90 -19 -91 -16
-144 -29 -154 -39 -6 -6 -21 -10 -36 -10 -14 0 -34 -7 -44 -15 -11 -8 -30 -15
-42 -15 -12 0 -27 -7 -34 -15 -7 -8 -21 -15 -31 -15 -10 0 -33 -6 -51 -14
-226 -99 -307 -141 -438 -227 -113 -74 -160 -99 -189 -99 -18 0 -66 41 -186
160 -110 109 -168 160 -183 160 -33 0 -492 -461 -492 -494 0 -18 23 -46 83
-101 45 -42 117 -115 161 -162 70 -77 78 -89 73 -118 -3 -17 -17 -49 -32 -71
-15 -21 -31 -49 -36 -61 -5 -13 -13 -23 -19 -23 -5 0 -10 -6 -10 -13 0 -8 -12
-32 -28 -53 -45 -66 -118 -204 -160 -304 -13 -30 -30 -70 -38 -88 -8 -18 -14
-41 -14 -51 0 -10 -7 -24 -15 -31 -8 -7 -15 -22 -15 -34 0 -11 -7 -30 -15 -40
-8 -11 -15 -32 -15 -46 0 -14 -4 -30 -10 -36 -9 -9 -19 -47 -40 -154 -36 -182
-49 -216 -86 -230 -14 -6 -121 -10 -238 -10 -194 0 -214 -2 -229 -18 -15 -17
-17 -56 -17 -349 0 -303 1 -331 18 -346 15 -13 53 -16 246 -19 l228 -3 24 -28
c15 -17 24 -41 24 -60 0 -18 5 -48 11 -67 6 -19 15 -55 19 -80 18 -96 31 -145
40 -154 6 -6 10 -22 10 -36 0 -14 7 -35 15 -46 8 -10 15 -29 15 -40 0 -12 7
-27 15 -34 8 -7 15 -23 15 -36 0 -12 4 -25 9 -29 5 -3 13 -20 17 -37 3 -18 10
-39 15 -48 5 -8 32 -64 62 -125 60 -123 70 -142 109 -199 16 -21 28 -45 28
-53 0 -7 5 -13 10 -13 6 0 13 -8 17 -18 4 -9 19 -35 34 -57 15 -23 30 -58 33
-80 l6 -38 -160 -161 c-108 -110 -160 -169 -160 -184 0 -32 462 -492 495 -492
16 0 45 24 100 83 42 45 115 117 162 161 79 72 88 78 120 73 18 -3 61 -23 94
-44 33 -21 68 -43 77 -48 10 -6 43 -27 75 -48 67 -43 184 -103 277 -142 36
-14 78 -33 93 -41 16 -8 37 -14 47 -14 9 0 23 -7 30 -15 7 -8 24 -15 39 -15
14 0 35 -7 45 -15 11 -8 31 -15 45 -15 14 0 35 -7 45 -15 11 -8 34 -15 52 -15
18 0 36 -4 39 -10 3 -5 21 -10 39 -10 19 0 53 -7 76 -15 23 -8 57 -15 76 -15
20 0 43 -9 61 -24 l28 -24 3 -233 c2 -167 6 -236 15 -241 21 -14 691 -10 705
4 9 9 12 71 12 219 0 113 3 221 6 238 8 36 45 61 92 61 16 0 49 7 72 15 23 8
57 15 76 15 18 0 36 5 39 10 3 6 21 10 39 10 18 0 41 7 52 15 10 8 31 15 45
15 14 0 34 7 45 15 10 8 31 15 45 15 15 0 32 7 39 15 7 8 22 15 34 15 11 0 30
7 40 15 11 8 26 15 33 15 18 0 173 70 194 87 8 7 21 13 27 13 6 0 46 21 87 47
42 27 84 53 93 58 10 6 35 22 57 36 22 14 47 29 55 33 8 4 26 13 40 21 53 31
65 23 235 -145 107 -107 168 -160 182 -160 30 0 493 464 493 493 0 14 -57 78
-161 184 -186 186 -182 177 -113 291 22 35 44 71 49 80 6 9 28 44 50 77 21 33
63 110 92 170 30 61 57 117 62 125 5 9 12 30 15 48 4 17 12 34 17 37 5 4 9 17
9 29 0 13 7 29 15 36 8 7 15 24 15 39 0 14 7 35 15 45 8 11 15 27 15 37 0 9 7
30 15 45 8 16 15 43 15 61 0 17 5 35 10 38 6 3 10 21 10 39 0 19 7 53 15 76 8
23 15 57 15 76 0 20 9 43 24 61 l24 28 229 3 c191 3 231 6 245 19 16 15 18 45
18 348 0 303 -2 333 -17 348 -15 13 -56 16 -245 19 -267 4 -262 2 -279 108 -5
34 -14 71 -19 81 -6 10 -10 33 -10 53 0 19 -4 38 -10 41 -5 3 -10 21 -10 38 0
18 -7 45 -15 61 -8 15 -15 36 -15 45 0 10 -7 26 -15 37 -8 10 -15 31 -15 45 0
15 -7 32 -15 39 -8 7 -15 23 -15 36 0 12 -4 25 -9 29 -5 3 -13 20 -17 37 -3
18 -10 39 -15 48 -5 8 -33 65 -62 125 -67 135 -69 140 -138 245 -74 113 -99
160 -99 189 0 18 41 66 160 186 112 112 160 168 160 183 0 31 -462 492 -493
492 -14 0 -75 -53 -182 -160 -156 -155 -163 -160 -197 -156 -19 3 -53 17 -74
31 -22 15 -49 31 -61 36 -13 5 -23 13 -23 19 0 5 -6 10 -13 10 -8 0 -32 12
-53 28 -66 45 -180 106 -294 155 -36 16 -80 35 -98 43 -18 8 -41 14 -51 14
-10 0 -24 7 -31 15 -7 8 -22 15 -34 15 -11 0 -30 7 -40 15 -11 8 -32 15 -46
15 -14 0 -30 4 -35 9 -10 9 -67 24 -155 41 -181 36 -220 51 -231 90 -4 14 -7
121 -8 239 -1 191 -3 215 -18 227 -14 10 -90 13 -349 14 -303 0 -332 -1 -347
-18z m-1348 -1657 l31 -36 0 -924 0 -925 73 0 c54 0 80 -5 104 -20 60 -36 63
-53 63 -322 l-1 -243 -29 -35 c-28 -34 -31 -35 -117 -40 l-88 -5 -5 -222 -5
-222 -29 -30 c-36 -38 -88 -41 -126 -10 l-25 21 -5 224 c-4 185 -8 226 -20
234 -8 5 -49 10 -91 10 -68 0 -78 3 -100 26 -24 25 -24 28 -27 252 -4 291 -1
325 41 354 25 18 50 24 112 28 l80 5 5 938 5 938 25 19 c14 11 41 20 61 20 30
0 43 -7 68 -35z m874 10 l27 -26 0 -364 0 -364 22 -15 c16 -11 46 -16 97 -16
63 0 78 -3 98 -22 23 -21 23 -22 23 -299 l0 -278 -33 -25 c-29 -22 -44 -26
-101 -26 -118 0 -106 94 -106 -800 l0 -779 -27 -26 c-37 -33 -82 -33 -122 1
l-31 26 0 783 c0 705 -2 783 -16 789 -9 3 -45 6 -80 6 -69 0 -97 10 -126 44
-16 19 -17 48 -18 280 0 245 1 260 21 292 20 34 21 34 94 34 41 0 85 4 99 10
l26 10 0 369 0 369 31 26 c40 34 85 34 122 1z m894 -14 l23 -34 0 -448 c0
-246 3 -454 6 -463 5 -12 21 -16 69 -16 85 0 131 -20 150 -66 22 -53 22 -485
0 -538 -19 -46 -65 -66 -150 -66 -48 0 -64 -4 -69 -16 -3 -9 -6 -310 -6 -670
0 -565 -2 -659 -15 -684 -31 -60 -100 -68 -146 -19 l-29 31 0 663 c0 365 -3
670 -6 679 -5 12 -21 16 -69 16 -85 0 -131 20 -150 66 -21 52 -22 488 -1 539
19 44 68 65 151 65 48 0 64 4 69 16 3 9 6 218 6 466 l0 451 26 34 c24 31 30
34 72 31 40 -3 49 -8 69 -37z m872 13 l31 -26 2 -781 3 -782 93 -5 c88 -5 94
-6 117 -35 l24 -30 1 -262 0 -262 -31 -36 -31 -35 -89 0 -89 0 0 -379 0 -379
-31 -26 c-37 -32 -81 -34 -117 -5 l-27 21 -5 381 -5 382 -87 5 c-76 4 -90 8
-117 33 l-31 27 0 274 0 274 31 26 c27 23 39 26 108 26 47 0 82 5 89 12 9 9
12 198 12 787 l0 775 28 23 c37 30 83 29 121 -3z m881 6 c25 -18 25 -22 30
-192 l5 -173 85 -5 c67 -4 92 -10 115 -27 l30 -21 0 -281 0 -281 -30 -25 c-26
-21 -40 -24 -106 -25 -51 0 -80 -4 -88 -13 -7 -10 -11 -299 -13 -999 l-3 -986
-25 -21 c-38 -31 -90 -28 -126 10 l-29 30 -5 987 -5 987 -65 3 c-91 3 -108 9
-141 45 l-29 31 0 248 c0 229 1 249 20 281 27 46 52 56 140 59 l75 3 5 162 5
162 29 30 c35 37 87 41 126 11z"/>
<path d="M1473 2774 c-2 -5 -2 -64 -1 -130 l3 -119 125 0 125 0 3 128 c1 70
-1 127 -5 127 -127 6 -246 3 -250 -6z"/>
<path d="M2337 3914 c-4 -4 -7 -63 -7 -130 0 -155 -1 -154 147 -154 56 0 113
4 128 10 l26 10 -3 132 -3 133 -141 3 c-77 1 -143 -1 -147 -4z"/>
<path d="M3234 3697 c-2 -7 -3 -67 -2 -133 l3 -119 130 0 130 0 0 130 0 130
-128 3 c-99 2 -129 0 -133 -11z"/>
<path d="M4106 3084 c-10 -26 -7 -224 4 -245 10 -17 22 -19 134 -19 93 0 126
3 135 14 8 9 11 55 9 137 l-3 124 -136 3 c-118 2 -137 0 -143 -14z"/>
<path d="M5004 4317 c-2 -7 -3 -69 -2 -138 l3 -124 125 0 125 0 0 135 0 135
-123 3 c-95 2 -124 0 -128 -11z"/>
<path d="M1 1443 l-1 -1443 1443 1 c977 0 1435 4 1421 10 -49 25 -54 50 -54
303 0 181 -3 237 -12 240 -7 2 -74 18 -148 35 -146 34 -215 54 -270 78 -19 9
-48 21 -65 28 -142 60 -385 177 -385 187 0 4 -4 8 -10 8 -5 0 -39 20 -76 45
-36 25 -71 45 -77 45 -6 0 -87 -75 -178 -166 -160 -160 -168 -166 -213 -171
l-48 -6 -335 334 c-189 188 -341 348 -349 367 -23 51 -2 81 175 257 89 88 161
165 161 172 0 7 -21 41 -46 75 -38 52 -143 255 -211 408 -32 74 -46 106 -58
135 -26 61 -57 175 -89 320 l-22 100 -240 5 c-252 5 -281 10 -302 54 -7 14
-11 -420 -11 -1421z"/>
<path d="M6715 2862 c-12 -40 -49 -47 -299 -52 l-239 -5 -18 -88 c-10 -49 -25
-114 -34 -145 -38 -128 -48 -159 -62 -192 -8 -19 -22 -51 -30 -70 -8 -19 -21
-48 -28 -65 -51 -120 -171 -351 -209 -403 -25 -34 -46 -68 -46 -75 0 -7 74
-86 165 -177 90 -90 169 -176 175 -191 9 -20 8 -34 -2 -58 -12 -28 -253 -277
-571 -588 l-117 -116 -46 6 c-45 5 -54 12 -213 171 -91 91 -172 166 -179 166
-6 0 -40 -21 -74 -46 -65 -47 -321 -177 -473 -240 -16 -6 -46 -19 -65 -27 -19
-8 -60 -22 -90 -31 -30 -9 -77 -22 -105 -30 -27 -8 -86 -22 -130 -31 -44 -10
-86 -19 -92 -21 -10 -3 -13 -59 -13 -240 0 -253 -5 -278 -54 -303 -14 -6 447
-10 1432 -10 l1452 -1 0 1440 c0 1243 -2 1440 -14 1440 -8 0 -17 -8 -21 -18z"/>
</g>
</svg>
