<svg version="1.2" xmlns="http://www.w3.org/2000/svg" viewBox="0 0 1551 610" width="1551" height="610"><defs><clipPath clipPathUnits="userSpaceOnUse" id="cp1"><path d="m-704-9315h8216v11621h-8216z"/></clipPath></defs><style>.a{fill:#133f7b}.b{fill:#ed8222}.c{fill:#41a0a6}.d{fill:#4e6065}</style><g clip-path="url(#cp1)"><path class="a" d="m1213.1 175.8h-3.8v-19.8h-6.9v-3.3h17.5v3.3h-6.8zm20.4 0l-6.7-19.3h-0.1q0.2 4.3 0.2 8.1v11.2h-3.4v-23.1h5.3l6.5 18.3h0.1l6.7-18.3h5.3v23.1h-3.6v-11.4q0-1.8 0.1-4.5 0.1-2.8 0.1-3.4h-0.1l-7 19.3z"/><path fill-rule="evenodd" class="b" d="m0 470h91.2v12.2h-38.1v96h-15v-96h-38.1zm496.4 108.2l-41.4-108.2h15.4l34.1 91.2 34.4-91.2h15l-40.9 108.2zm-105.8-18.3v18.3h-15.4v-18.3zm-62-86.2v23.2h27.6v10.5h-27.6v44c0 6.9 0.8 11 2.9 13 1.6 2 5.2 2.9 10.9 2.9h13.8v10.9h-13.8c-10.5 0-17.4-1.6-21.5-5.7-3.6-3.6-5.6-10.9-5.6-21.1v-44h-9.8v-10.5h9.8v-23.2zm-38.9 25.6v12.6c-3.7-1.6-7.7-3.2-11.8-4.1-4-1.2-8.1-1.6-12.6-1.6-6.4 0-11.3 0.8-14.5 2.9-3.7 2-5.3 5.3-5.3 9.3q0 4.9 3.6 7.3c2.5 1.7 7.3 3.3 14.2 4.9l4.9 1.3c9.3 2 15.8 4.8 19.8 8.5 4.1 3.7 6.1 9 6.1 15.5 0 7.7-2.8 13.4-8.9 17.9-6.1 4.4-14.2 6.9-24.7 6.9-4.1 0-8.9-0.4-13.4-1.6-4.9-0.9-9.7-2.1-15-3.7v-13.8c4.9 2.4 9.7 4.4 14.6 5.7 4.9 1.2 9.3 2 14.2 2 6.1 0 10.9-1.2 14.6-3.3 3.2-2 4.8-5.3 4.8-8.9q0-5.5-3.6-8.6c-2.4-2-7.7-3.6-15.8-5.7l-4.9-0.8c-8.1-2-14.2-4.5-17.8-8.1-3.6-3.7-5.7-8.6-5.7-15.1 0-7.3 2.9-13.4 8.5-17.5 5.3-4 13-6.5 22.7-6.5 4.9 0 9.7 0.4 14.2 1.2 4.1 0.9 8.1 2.1 11.8 3.3zm-147.1 46.8v-49.2h13.3v48.8c0 7.7 1.7 13.4 4.5 17.5 3.2 3.6 7.7 5.7 13.8 5.7 6.9 0 12.5-2.5 17-6.9 4-4.5 6.1-11 6.1-18.8v-46.3h13.3v81.3h-13.3v-12.2c-3.3 4.9-6.9 8.6-11.4 11q-6.1 3.7-14.6 3.7c-9.3 0-16.6-3.3-21.4-9q-7.3-8.5-7.3-25.6zm-12.6-36.6c-1.2-0.8-2.8-1.7-4.9-2.1-1.6-0.4-3.6-0.4-5.6-0.4-7.7 0-13.4 2.5-17.5 7.4-4 4.8-6 11.8-6 21.1v42.7h-13.4v-81.3h13.4v12.6q4.2-7.4 10.9-11c4.5-2.5 10.1-3.7 16.6-3.7 0.8 0 1.6 0.4 2.9 0.4 1.2 0 2.4 0.4 3.6 0.4zm868.1 68.7l-41.3-108.2h15.4l34 91.2 34.4-91.2h15.4l-41.3 108.2zm-105.4-18.3v18.3h-15.4v-18.3zm-39.3-25.6v6.5h-61.1c0.8 9.4 3.2 16.3 8.5 21.2q7.3 7.3 20.6 7.3c4.9 0 9.7-0.8 14.6-2 4.9-1.3 9.7-3.3 14.6-5.7v12.6c-4.9 2-9.7 3.6-15 4.9-4.9 0.8-10.1 1.6-15 1.6-13 0-23.5-4.1-30.8-11.4-7.7-7.7-11.3-17.9-11.3-30.9 0-13.1 3.6-23.6 10.5-31.8 7.3-7.7 17-11.8 29.2-11.8 10.9 0 19.4 3.7 25.9 10.6 6.1 7.3 9.3 16.7 9.3 28.9zm-13.3-4.1c0-7.3-2.1-13-6.1-17.5-4.1-4-9.3-6.5-15.8-6.5-7.3 0-13.4 2.5-17.8 6.5-4.5 4.1-6.9 10.2-7.7 17.9zm-151.2 15.9v-49.2h13.4v48.8c0 7.7 1.2 13.4 4.4 17.5 2.9 3.7 7.3 5.7 13.4 5.7 7.3 0 13-2.4 17-6.9 4.1-4.5 6.1-11 6.1-18.7v-46.4h13.4v81.4h-13.4v-12.3c-2.8 4.9-6.9 8.6-10.9 11-4.5 2.5-9.3 3.7-15 3.7-9.3 0-16.2-3.3-21.1-9q-7.3-8.5-7.3-25.6zm-26.7-81v113.2h-13v-113.2zm-40.5 66.8v46.4h-13.4v-12.3c-3.2 4.9-6.9 8.6-11.3 11-4.5 2.5-10.2 3.7-16.7 3.7-8.5 0-14.9-2.4-19.8-7.3-4.9-4.5-7.3-11-7.3-18.7 0-9 2.8-15.9 8.9-20.8 6.1-4.5 15.4-6.9 27.6-6.9h18.6v-1.2c0-6.1-2-11-6.1-14.3-4-3.6-9.7-5.3-17-5.3-4.4 0-8.9 0.8-13.4 1.7-4.4 1.2-8.9 2.8-12.9 5.2v-12.6c4.8-1.6 9.7-3.2 14.2-4 4.8-0.9 9.3-1.7 13.7-1.7 11.4 0 20.3 3.3 26 9.4 6 6.1 8.9 15.5 8.9 27.7zm-26.8 5.7c-10.5 0-18.2 1.2-22.3 3.6-4 2.5-6 6.5-6 12.6 0 4.9 1.2 8.6 4.4 11.4 3.3 2.9 7.3 4.1 13 4.1 7.3 0 13-2.4 17.4-7.7 4.5-5.3 6.9-12.2 6.9-21.2v-2.8zm902.4 48.4c-3.6 9.7-7.3 15.8-10.9 19.1-3.3 2.9-8.1 4.5-14.2 4.5h-10.6v-11.4h7.7q5.5 0 8.6-2.5c2-2 4.4-6.1 6.8-12.6l2.5-6.1-32.9-80.1h13.8l25.6 63.8 25.5-63.8h13.8zm-78.7-112.4v23.2h27.6v10.6h-27.6v44c0 6.9 1.3 11 2.9 13 1.6 2 5.7 2.8 10.9 2.8h13.8v11h-13.8c-10.1 0-17.4-1.6-21-5.7-4.1-3.6-6.1-11-6.1-21.1v-44h-9.7v-10.6h9.7v-23.2zm-40.9-8.5v17.1h-13.4v-17.1zm0 31.7v81.4h-13.4v-81.4zm-36.5 3.3v12.6c-3.6-2-7.7-3.7-11.3-4.9-3.7-0.8-7.7-1.6-11.4-1.6-8.9 0-15.3 2.8-20.2 8.5q-7.3 8-7.3 23.2c0 9.8 2.4 17.5 7.3 22.8 4.9 5.7 11.3 8.6 20.2 8.6 3.7 0 7.7-0.8 11.4-1.7 3.6-1.2 7.7-2.8 11.3-4.8v12.6c-3.6 1.6-7.7 2.8-11.7 3.6-3.7 1.3-8.1 1.7-12.6 1.7-12.1 0-21.9-4.1-29.1-11.8-6.9-7.8-10.6-17.9-10.6-31 0-13.4 3.7-24 11-31.3 6.8-7.7 17-11.8 29.5-11.8 4.1 0 8.1 0.8 12.2 1.6 4 0.8 7.7 2.1 11.3 3.7zm-117.5-5.3c11.4 0 20.7 4.1 27.2 11.4q9.7 11.6 9.7 31.7c0 13.1-3.2 23.6-9.7 31.4-6.5 7.3-15.8 11.4-27.2 11.4-11.7 0-21-4.1-27.5-11.4-6.5-7.8-9.7-18.3-9.7-31.4q-0.1-20.1 9.7-31.7c6.5-7.3 15.8-11.4 27.5-11.4zm0 11.4q-10.9 0-17 8.5c-4 5.7-6.5 13.5-6.5 23.2 0 9.4 2.5 17.1 6.5 22.8q6.1 8.6 17 8.6c6.9 0 12.6-2.9 16.6-8.6 4.1-5.7 6.5-13.4 6.5-22.8 0-9.7-2.4-17.5-6.5-23.2-4-5.7-9.7-8.5-16.6-8.5zm-59.5-41.1v113.1h-13.4v-113.1zm-35.3 69.2v6.5h-61.1c0.8 9.3 3.6 16.3 8.5 21.1q7.3 7.4 20.6 7.4c4.9 0 10.2-0.8 14.6-2.1 4.9-1.2 9.7-3.2 14.6-5.7v12.7q-7.3 3-14.6 4.8c-5.3 0.9-10.1 1.7-15.4 1.7-13 0-23.1-4.1-30.8-11.4-7.7-7.8-11.3-17.9-11.3-31q0-19.5 10.9-31.7c6.9-7.7 16.6-11.8 28.8-11.8 10.9 0 19.4 3.7 25.9 10.6 6.5 7.3 9.3 16.7 9.3 28.9zm-12.9-4.1c-0.4-7.3-2.5-13-6.5-17.5-3.7-4.1-8.9-6.5-15.8-6.5-7.3 0-13.4 2.4-17.8 6.5-4.5 4.1-6.9 10.2-7.7 17.9z"/><path fill-rule="evenodd" class="a" d="m636.5 296.4c-3.1 6.8-7.9 12.7-14.2 17.8q-9.4 7.5-23.8 11.8c-9.5 2.9-20.7 4.4-33.3 4.4q-17.4 0-32.1-3.8-9.4-2.4-17.2-5.6v-38q0.8-1.2 2.8-0.1 7.7 5 20.9 9.2 13.3 4.1 26 4.1c10.7 0 18.3-1.8 22.9-5.2q6.9-5.2 6.9-13.5 0-8.7-7.2-13.8c-4.9-3.5-12.8-6.9-23.7-10.3q-27.3-8.3-40-21.8-12.7-13.5-12.7-30 0-11.5 4.9-21.8 4.9-10.2 13.8-17.8c5.9-5 13.3-9 22-11.8 8.7-2.9 18.7-4.4 29.8-4.4q15.7 0.1 28.7 3.3 7.5 1.8 13.4 4.2v36.8q-0.9 0.5-2.4-0.4-5.9-2.9-16.4-6.6-10.5-3.8-23.3-3.8-12.3 0-18.7 5c-4.2 3.4-6.4 7.6-6.4 12.6 0 5.8 2.7 10.2 8 13.3q8 4.7 24.8 10.1 25.8 8.3 38.5 20.8 12.7 12.7 12.7 33.1c0 7.9-1.5 15.3-4.7 22.2zm-397.3 34.5l-5.2-104.3c-0.5-8.2-0.9-16.2-1.3-23.8q-0.5-11.3-1.1-22.5c-0.4-7.4-0.7-15-0.9-22.7q-0.4-11.6-0.8-24.4-6.6 20.2-13.9 41.1-7.2 20.9-15.7 42.8l-41.8 110.3q-0.8 1.5-2.3 1.5h-33.7q-1.4 0-2.2-1.5l-37.7-109.2c-3-8.3-5.6-15.9-7.8-22.9-2.3-6.9-4.3-13.7-6.1-20.3q-2.8-9.9-5.6-19.8-2.8-9.9-5.7-21.6c0 1.5-0.1 3.7-0.2 6.6q-0.2 4.4-0.2 6.9c-0.5 13.2-1.1 26.9-1.9 40.9q-1.1 21.1-2.2 40.5c-1 16.8-2 33.9-3.1 51.3q-1.7 25.9-3.2 51.1h-44.3c-0.3-0.4-0.5-1-0.5-1.7l16.7-242.8c0-1.3 0.7-1.9 2.2-1.9h58.9q1.1 0 2.2 1.1l37.8 103.3q7.4 20.9 12.6 38.5 5.2 17.6 10.7 37.4c3.5-11.8 7.4-24.2 11.7-37.4q6.5-19.8 13.9-38.5l40.7-103.3c0.7-0.7 1.5-1.1 2.2-1.1h58.2q2.2 0 2.2 1.9l14 242.8q0.1 1.1-0.4 1.7zm191.8-20.5c-10.4 16.9-35.1 23.1-58.2 21.3-33-2.5-56.7-20.3-56.7-55 0-53.8 66.5-64.5 110.5-63.8 0-20.9-13.4-31.5-40.2-31.5q-8.6 0-16.2 1.1v-34.6c6.1-0.8 12.4-1.2 19.1-1.2 27.5 0 47.6 6.2 60.4 18.5 12.7 12.4 19.2 35.9 19.2 70.3v38.1c0 23.8 5.5 38.1 15.1 44.2-14 21.9-51.5 14.5-53-7.4zm-2.8-66.5c-25.4-5-78.8 4-65.4 41.1 7.6 21.1 46.8 15.8 57.5 0.2 7.1-10.5 7.9-25.8 7.9-41.3zm535.6 8.8h-114.2c5.5 36.6 47.3 45.1 78.7 41.6q1.5 0 2.1 0.6v34.3c-59.6 11.5-125-17.5-125-86.8q0-17.4 5.7-34.3c12.9-37.8 46.5-59.5 86.3-59.5 50.3 0 82 37.1 82 85.3 0 14.6-6.5 18.8-15.6 18.8zm-113.8-33h85.5c-1.8-22.9-16.6-39.1-40.6-39.1-24.2 0-41.1 16-44.9 39.1zm-158.2-33.8h-31.7v-35.9h31.7v-34.7c0-1.8 0.4-1.8 1.4-2.1l40.4-4.8c0.6-0.1 1.9-0.2 1.9 2.2l0.3 39.4h43.4v35.9h-43.4v74.5c0 12.2 2 20.7 5.8 25.8 10.1 13.1 31.3 7.2 43.3-0.2v40.4c-9.3 3.1-22.6 4.8-39.8 4.8-17.1 0-30.3-4.9-39.5-14.5-9.2-9.5-13.8-27-13.8-44.7zm497.9 145h-54.6l-58.6-78.5q-3.7 3.6-7.2 7.8c-2.4 2.8-4.9 5.6-7.6 8.2v59.8q0 2.2-2.2 2.2h-43.1q-2.2 0-2.2-2.2v-251.4c0-1.4 0.7-2 2.2-2.2l43.1-5.1c1.5-0.2 2.2 0.7 2.2 2.2l0.8 152.7q2.9-3.7 6-7.7c2.1-2.7 4.1-5 6.1-6.9h-0.4q12.9-14.3 25.5-28.6c8.3-9.6 16.7-19.2 25-28.6q0.7-0.8 1.9-0.8h53q1.8 0 2.2 1.3c0.3 0.8 0 1.6-0.7 2.4l-71.5 69.2q20.7 25.5 41.4 51 20.8 25.5 41.9 51c1.7 2.6-0.8 4.2-3.2 4.2zm170.4-178.9l84.7-52.7c15.9-9.9 37-5.1 47 10.6l53.3 83.9c10 15.7 5.2 36.6-10.7 46.4l-84.8 52.8c-15.8 9.8-37 5.1-46.9-10.6l-53.4-83.9c-9.9-15.7-5.1-36.6 10.8-46.5z"/><path class="c" d="m1219.3 54.1l35-46.2c6.6-8.6 19.1-10.4 27.8-3.9l46.7 34.6c8.7 6.5 10.5 18.8 4 27.5l-35 46.1c-6.6 8.7-19.1 10.4-27.8 4l-46.7-34.6c-8.7-6.5-10.5-18.9-4-27.5z"/><path class="d" d="m1316.2 397.4l47 3.9c8.8 0.8 16.6-5.7 17.4-14.4l4-46.5c0.7-8.7-5.8-16.5-14.6-17.2l-47.1-4c-8.7-0.8-16.6 5.8-17.3 14.5l-4 46.5c-0.8 8.7 5.8 16.4 14.6 17.2z"/></g></svg>