 <svg  version="1.0" xmlns="http://www.w3.org/2000/svg"  width="900.000000pt" height="900.000000pt" viewBox="0 0 900.000000 900.000000"  preserveAspectRatio="xMidYMid meet">  <g transform="translate(0.000000,900.000000) scale(0.100000,-0.100000)" fill="#5b77ae" stroke="none"> <path d="M2860 8985 c0 -8 -11 -17 -25 -21 -37 -9 -110 -96 -124 -146 -8 -29 -11 -108 -9 -243 3 -188 4 -203 27 -247 31 -60 97 -108 170 -123 l56 -11 0 -289 0 -290 -120 -5 c-106 -5 -126 -8 -175 -33 -75 -38 -115 -80 -150 -154 -28 -60 -30 -70 -30 -192 0 -91 -4 -132 -12 -139 -7 -5 -78 -12 -158 -14 -142 -4 -146 -5 -208 -37 -73 -39 -130 -98 -168 -173 -25 -49 -28 -64 -32 -198 -2 -80 -9 -151 -14 -157 -7 -9 -48 -13 -139 -13 -122 0 -132 -2 -192 -30 -74 -35 -116 -75 -154 -150 -25 -49 -28 -69 -33 -175 l-5 -120 -290 0 -289 0 -11 56 c-15 74 -64 142 -124 171 -42 21 -62 23 -246 26 -231 4 -265 -2 -330 -60 -72 -63 -75 -78 -75 -339 0 -251 -1 -246 64 -316 63 -67 98 -75 338 -71 187 3 207 5 249 26 60 29 109 97 124 171 l11 56 289 0 290 0 3 -540 c1 -297 0 -550 -3 -562 l-5 -23 -279 0 c-211 0 -281 3 -289 13 -5 6 -13 32 -17 57 -12 71 -61 137 -127 171 -33 17 -60 19 -263 19 -245 0 -258 -2 -318 -59 -63 -58 -67 -77 -67 -331 0 -254 4 -275 67 -330 66 -59 72 -60 317 -60 204 0 231 2 264 19 67 35 116 100 127 171 4 25 12 51 17 58 16 18 551 17 567 -2 8 -9 10 -165 9 -562 l-3 -549 -290 0 -289 0 -11 56 c-15 74 -64 142 -124 171 -42 21 -62 23 -249 26 -235 4 -277 -5 -336 -66 -65 -67 -66 -71 -66 -322 0 -260 3 -275 75 -338 65 -58 99 -64 330 -60 188 3 203 4 247 27 60 31 108 97 123 170 l11 56 289 0 290 0 5 -120 c5 -106 8 -126 33 -175 38 -75 80 -115 154 -150 60 -28 70 -30 192 -30 91 0 132 -4 139 -12 5 -7 12 -78 14 -158 5 -141 6 -147 38 -208 39 -73 97 -130 172 -168 48 -25 65 -28 193 -32 77 -2 148 -9 158 -14 15 -8 17 -25 17 -138 0 -123 2 -133 30 -193 35 -74 75 -116 150 -154 49 -25 69 -28 175 -33 l120 -5 0 -290 0 -289 -56 -11 c-74 -15 -142 -64 -171 -124 -21 -42 -23 -62 -26 -246 -4 -231 2 -265 60 -330 63 -72 78 -75 333 -75 253 0 268 3 331 72 59 64 66 100 62 333 -3 184 -5 204 -26 246 -29 60 -97 109 -171 124 l-56 11 0 289 0 290 540 3 c297 1 550 0 563 -3 l22 -5 0 -279 c0 -211 -3 -281 -12 -289 -7 -5 -33 -13 -58 -17 -71 -11 -136 -60 -171 -127 -17 -33 -19 -60 -19 -264 0 -245 1 -251 60 -317 55 -63 76 -67 330 -67 254 0 275 4 330 67 59 66 60 72 60 317 0 204 -2 231 -19 264 -35 67 -100 116 -171 127 -25 4 -51 12 -57 17 -10 8 -13 78 -13 289 l0 279 23 5 c12 3 265 4 562 3 l540 -3 0 -290 0 -289 -55 -11 c-92 -19 -157 -73 -184 -153 -12 -35 -16 -90 -16 -237 0 -218 9 -260 66 -319 60 -62 80 -66 329 -66 255 0 270 3 333 75 58 65 64 99 60 330 -3 184 -5 204 -26 246 -29 60 -97 109 -171 124 l-56 11 0 289 0 290 120 5 c106 5 127 9 177 34 71 36 109 75 147 153 30 59 31 67 31 192 0 114 2 131 18 139 9 5 80 12 157 14 135 5 142 6 203 38 73 39 128 95 167 171 26 50 28 65 32 199 4 117 8 147 21 158 11 8 56 12 139 12 115 0 127 2 186 30 74 35 116 75 154 150 25 49 28 69 33 175 l5 120 290 0 289 0 11 -56 c15 -74 64 -142 124 -171 42 -21 62 -23 246 -26 135 -2 214 1 243 9 50 14 137 87 146 124 4 14 13 25 21 25 13 0 15 34 15 235 0 195 -2 235 -14 235 -8 0 -19 13 -24 29 -15 42 -78 98 -132 116 -40 13 -86 16 -252 13 -187 -3 -207 -5 -249 -26 -60 -29 -109 -97 -124 -171 l-11 -56 -289 0 -290 0 -3 549 c-1 397 1 553 9 562 16 19 551 20 567 2 5 -7 13 -33 17 -58 11 -71 60 -136 127 -171 33 -17 60 -19 262 -19 209 0 228 2 265 21 44 23 95 75 106 108 3 12 13 21 21 21 12 0 14 38 14 240 0 202 -2 240 -14 240 -8 0 -18 10 -21 23 -10 31 -62 83 -107 107 -35 18 -58 20 -264 20 -202 0 -229 -2 -262 -19 -66 -34 -115 -100 -127 -171 -4 -25 -12 -51 -17 -57 -8 -10 -78 -13 -289 -13 l-279 0 -5 22 c-3 13 -4 266 -3 563 l3 540 290 0 289 0 11 -56 c15 -74 64 -142 124 -171 42 -21 62 -23 249 -26 166 -3 212 0 252 13 54 18 117 74 132 116 5 16 16 29 24 29 12 0 14 40 14 235 0 201 -2 235 -15 235 -8 0 -17 11 -21 25 -9 37 -96 110 -146 124 -29 8 -108 11 -243 9 -184 -3 -204 -5 -246 -26 -60 -29 -109 -97 -124 -171 l-11 -56 -289 0 -290 0 -5 120 c-5 106 -8 126 -33 175 -38 75 -80 115 -154 150 -60 28 -70 30 -192 30 -91 0 -132 4 -139 13 -5 6 -12 77 -14 157 -5 134 -7 149 -33 199 -39 76 -94 132 -167 171 -61 32 -67 33 -208 38 -80 2 -151 9 -157 14 -9 7 -13 48 -13 139 0 122 -2 132 -30 192 -35 74 -75 116 -150 154 -49 25 -69 28 -175 33 l-120 5 0 290 0 289 56 11 c74 15 142 64 171 124 21 42 23 62 26 245 2 143 -1 212 -10 244 -15 53 -86 137 -123 146 -14 4 -25 13 -25 21 0 13 -34 15 -233 15 -221 0 -233 -1 -245 -20 -7 -11 -18 -20 -26 -20 -7 0 -32 -18 -54 -41 -66 -65 -74 -104 -70 -341 3 -187 5 -207 26 -249 29 -60 97 -109 171 -124 l56 -11 0 -289 0 -290 -540 -3 c-297 -1 -550 0 -562 3 l-23 5 0 279 c0 211 3 281 13 289 6 5 32 13 57 17 72 12 132 58 173 132 15 27 17 61 17 257 0 205 -2 230 -19 265 -22 41 -78 95 -110 106 -12 3 -21 13 -21 21 0 12 -38 14 -240 14 -202 0 -240 -2 -240 -14 0 -8 -10 -18 -22 -21 -32 -10 -84 -62 -108 -107 -18 -35 -20 -58 -20 -264 0 -202 2 -229 19 -262 35 -67 100 -116 171 -127 25 -4 51 -12 58 -17 9 -8 12 -78 12 -289 l0 -279 -22 -5 c-13 -3 -266 -4 -563 -3 l-540 3 0 290 0 289 56 11 c74 15 142 64 171 124 21 42 23 62 26 249 4 237 -4 276 -70 341 -22 23 -47 41 -54 41 -8 0 -19 9 -26 20 -12 19 -24 20 -245 20 -199 0 -233 -2 -233 -15z m362 -275 c2 -5 2 -61 0 -125 l-3 -115 -125 0 c-103 0 -124 3 -125 15 0 8 0 60 0 115 0 55 0 105 0 110 1 13 248 13 253 0z m1390 0 c2 -5 1 -60 -2 -122 l-5 -113 -115 0 -115 0 -5 113 c-3 62 -3 117 -2 122 2 6 54 10 122 10 68 0 120 -4 122 -10z m1399 -2 c0 -12 0 -197 -1 -226 0 -10 -28 -12 -122 -10 l-123 3 -5 113 c-3 62 -3 117 -2 122 6 16 252 13 253 -2z m736 -1915 c12 -7 29 -20 37 -29 15 -14 16 -230 16 -2274 l0 -2259 -24 -24 c-23 -23 -27 -24 -281 -30 -142 -4 -1151 -7 -2242 -7 -1719 0 -1988 2 -2019 15 -68 28 -64 -75 -64 1567 0 933 -4 1496 -10 1518 -11 40 -53 78 -102 94 l-33 11 -3 167 -2 167 38 10 c21 6 48 20 61 32 50 47 51 57 51 524 0 485 1 493 62 520 29 13 322 15 2263 12 1756 -1 2235 -5 2252 -14z m-6237 -909 c0 -92 -3 -124 -12 -124 -29 -1 -214 -1 -225 -1 -16 1 -19 247 -3 253 5 2 61 2 125 0 l115 -3 0 -125z m8210 0 c0 -92 -3 -124 -12 -125 -12 0 -197 0 -225 1 -10 0 -13 32 -13 125 l0 124 113 3 c61 2 118 1 125 -1 9 -2 12 -36 12 -127z m-8212 -1388 c1 -60 -1 -113 -6 -118 -7 -7 -130 -12 -229 -8 -10 0 -13 31 -13 120 l0 121 123 -3 122 -3 3 -109z m8212 -6 c0 -89 -3 -120 -12 -121 -12 0 -197 0 -225 1 -10 0 -13 29 -13 113 0 63 3 117 7 120 3 4 60 7 125 7 l118 0 0 -120z m-8212 -1397 l3 -122 -116 -3 c-63 -2 -120 -1 -125 0 -13 5 -13 249 0 254 5 2 60 1 122 -2 l113 -5 3 -122z m8212 2 c0 -72 -4 -125 -10 -127 -5 -1 -62 -2 -125 0 l-116 3 3 122 3 122 110 5 c61 3 116 3 123 1 9 -2 12 -36 12 -126z m-5500 -2600 c1 -8 1 -60 1 -115 0 -55 0 -104 -1 -110 0 -16 -250 -13 -251 3 0 11 0 196 1 225 0 9 32 12 125 12 104 0 125 -2 125 -15z m1390 -103 c3 -62 4 -117 2 -122 -6 -16 -242 -13 -243 3 -2 50 3 222 7 229 3 5 56 7 117 6 l112 -3 5 -113z m1400 106 c1 -29 1 -214 1 -225 -1 -10 -33 -13 -126 -13 -93 0 -125 3 -126 13 -2 49 3 222 7 229 3 4 59 8 125 8 88 0 119 -3 119 -12z"/> <path d="M2990 6560 c-67 -12 -132 -29 -160 -42 -76 -36 -152 -88 -208 -142 -121 -117 -176 -225 -203 -402 -6 -37 -8 -643 -7 -1535 3 -1224 5 -1480 17 -1509 8 -19 21 -55 29 -80 54 -161 230 -338 392 -393 129 -44 82 -42 1220 -42 1040 0 1086 1 1112 19 15 10 37 33 48 52 24 38 20 88 -11 140 -41 68 26 64 -1149 64 l-1061 0 -75 31 c-102 43 -170 111 -213 213 l-31 75 0 1478 c0 1397 1 1482 18 1528 44 123 113 197 227 244 l74 31 1493 -2 1493 -3 65 -32 c84 -40 153 -109 193 -193 l32 -65 0 -1505 0 -1505 -32 -65 c-40 -84 -110 -153 -193 -193 -60 -29 -74 -31 -190 -34 -143 -4 -189 -19 -220 -68 -13 -21 -20 -50 -20 -82 0 -41 5 -54 31 -81 46 -47 85 -56 228 -49 70 3 142 11 161 18 19 6 55 19 80 27 134 45 305 196 367 324 30 62 38 86 64 193 6 25 8 609 7 1545 -3 1255 -5 1511 -17 1540 -7 19 -20 55 -29 80 -24 73 -76 150 -149 222 -124 122 -216 169 -388 198 -62 11 -2933 10 -2995 0z"/> <path d="M5075 5007 c-49 -19 -70 -39 -88 -85 -15 -37 -17 -90 -17 -430 0 -331 2 -393 16 -432 23 -63 55 -85 128 -85 55 0 60 2 92 39 34 39 34 41 34 135 0 53 4 101 8 107 4 6 55 13 118 17 88 4 121 10 160 29 107 52 167 119 204 227 46 132 4 291 -102 386 -61 54 -115 80 -199 94 -86 14 -315 13 -354 -2z m368 -288 c33 -27 37 -35 37 -78 0 -55 -24 -85 -81 -101 -47 -14 -133 -12 -147 2 -13 13 -17 189 -5 201 3 4 41 7 82 7 71 0 79 -2 114 -31z"/> <path d="M3300 4998 c-13 -7 -35 -29 -47 -47 l-23 -34 0 -427 0 -427 23 -34 c40 -59 105 -75 174 -42 61 28 73 71 73 260 0 89 4 164 8 167 7 4 81 -98 172 -239 56 -87 112 -164 130 -180 32 -29 141 -29 168 1 47 50 47 49 50 459 4 419 -1 472 -43 522 -23 25 -31 28 -90 28 -60 0 -67 -2 -97 -33 l-33 -32 -3 -190 c-2 -105 -6 -190 -9 -190 -11 0 -41 41 -159 217 -69 103 -134 197 -144 207 -24 24 -114 33 -150 14z"/> <path d="M4310 5003 c-26 -10 -59 -54 -70 -92 -13 -48 -13 -794 0 -842 14 -50 48 -85 95 -98 52 -14 278 -14 330 0 81 22 120 90 96 169 -18 62 -57 82 -165 89 l-91 6 -5 352 -5 353 -32 31 c-26 27 -41 33 -85 35 -29 2 -60 1 -68 -3z"/> </g> </svg> 